<svg width="539" height="155" viewBox="0 0 539 155" fill="none" xmlns="http://www.w3.org/2000/svg">
<path d="M33.6 97.96C31.84 97.96 29.64 97.8 27 97.48C24.44 97.24 21.72 96.76 18.84 96.04C15.96 95.4 13.28 94.52 10.8 93.4C8.32 92.28 6.28 90.88 4.68 89.2C3.08 87.52 2.28 85.52 2.28 83.2C2.28 79.92 3.24 77.12 5.16 74.8C7.08 72.48 9.52 70.6 12.48 69.16C15.52 67.72 18.64 66.64 21.84 65.92C25.12 65.12 28.08 64.64 30.72 64.48C32.56 61.04 34.64 57.28 36.96 53.2C39.28 49.04 41.72 45 44.28 41.08C46.92 37.16 49.52 33.84 52.08 31.12C53.2 29.92 54.44 29.16 55.8 28.84C57.24 28.44 58.76 28.24 60.36 28.24C60.92 28.24 61.52 28.36 62.16 28.6C62.8 28.76 63.16 29.2 63.24 29.92C63.08 30.64 62.6 31.4 61.8 32.2C61.08 33 60.48 33.64 60 34.12C56.32 38.2 52.52 42.92 48.6 48.28C44.68 53.64 41.04 59.04 37.68 64.48C43.04 64.56 48.56 64.96 54.24 65.68C60 66.4 65.6 67.6 71.04 69.28C76.48 70.88 81.44 73.2 85.92 76.24C86.96 75.12 87.88 73.84 88.68 72.4C89.48 70.96 89.88 69.44 89.88 67.84C89.88 65.52 89.04 63.52 87.36 61.84C85.68 60.16 83.52 58.8 80.88 57.76C78.24 56.64 75.4 55.76 72.36 55.12C69.4 54.48 66.56 54.04 63.84 53.8C61.2 53.56 59.04 53.44 57.36 53.44C56.88 53.44 56.12 53.48 55.08 53.56C54.12 53.56 53.24 53.44 52.44 53.2C51.64 52.96 51.24 52.44 51.24 51.64C51.24 50.36 51.8 49.52 52.92 49.12C54.12 48.64 55.2 48.32 56.16 48.16C59.92 47.44 63.72 46.84 67.56 46.36C71.4 45.8 75.16 44.96 78.84 43.84C82.52 42.64 85.92 40.8 89.04 38.32C89.68 37.84 90.36 37.24 91.08 36.52C91.88 35.8 92.28 35.04 92.28 34.24C92.28 32.88 91.24 31.76 89.16 30.88C87.16 29.92 84.6 29.16 81.48 28.6C78.36 28.04 75.12 27.64 71.76 27.4C68.48 27.08 65.52 26.88 62.88 26.8C60.24 26.72 58.4 26.68 57.36 26.68C50.56 26.68 44.2 27.16 38.28 28.12C32.44 29.08 26.2 30.4 19.56 32.08C18.84 32.24 17.72 32.6 16.2 33.16C14.68 33.64 13.2 34.08 11.76 34.48C10.4 34.88 9.48 35.08 9 35.08C8.44 35.08 7.96 34.96 7.56 34.72C7.16 34.4 6.96 33.96 6.96 33.4C6.96 31.72 7.88 30.28 9.72 29.08C11.64 27.8 14.12 26.76 17.16 25.96C20.2 25.08 23.52 24.4 27.12 23.92C30.72 23.44 34.24 23.08 37.68 22.84C41.2 22.52 44.32 22.32 47.04 22.24C49.76 22.16 51.72 22.12 52.92 22.12C54.36 22.12 56.44 22.2 59.16 22.36C61.96 22.44 65.08 22.64 68.52 22.96C72.04 23.28 75.56 23.76 79.08 24.4C82.68 25.04 86 25.84 89.04 26.8C92.08 27.76 94.52 28.96 96.36 30.4C98.2 31.76 99.12 33.4 99.12 35.32C99.12 37.16 98.32 38.84 96.72 40.36C95.2 41.88 93.16 43.28 90.6 44.56C88.12 45.76 85.48 46.8 82.68 47.68C79.88 48.56 77.24 49.28 74.76 49.84C72.28 50.32 70.24 50.64 68.64 50.8C71.36 51.04 74.4 51.6 77.76 52.48C81.12 53.28 84.36 54.44 87.48 55.96C90.6 57.4 93.16 59.16 95.16 61.24C97.16 63.32 98.16 65.68 98.16 68.32C98.16 70.8 97.4 73.08 95.88 75.16C94.44 77.24 92.88 79.08 91.2 80.68C91.84 81.32 92.6 82.4 93.48 83.92C94.44 85.44 94.92 86.68 94.92 87.64C94.92 88.2 94.8 88.68 94.56 89.08C94.4 89.48 94.16 89.68 93.84 89.68C93.52 89.68 93.24 89.48 93 89.08C92.28 87.96 91.48 86.84 90.6 85.72C89.72 84.6 88.96 83.72 88.32 83.08C83.52 86.6 77.96 89.44 71.64 91.6C65.32 93.84 58.84 95.44 52.2 96.4C45.64 97.44 39.44 97.96 33.6 97.96ZM33.6 95.08C39.2 95.08 45 94.56 51 93.52C57.08 92.48 62.96 90.8 68.64 88.48C74.4 86.16 79.48 83.08 83.88 79.24C78.52 75.64 72.16 73 64.8 71.32C57.44 69.56 49.84 68.68 42 68.68C41.12 68.68 40.2 68.68 39.24 68.68C38.36 68.68 37.48 68.72 36.6 68.8L35.04 68.92C33.68 71.24 32.36 73.72 31.08 76.36C29.8 79 28.72 81.56 27.84 84.04C27.04 86.52 26.64 88.72 26.64 90.64C26.64 91.28 26.44 92 26.04 92.8C25.72 93.68 25.24 94.12 24.6 94.12C27.64 94.76 30.64 95.08 33.6 95.08ZM22.44 93.52C21.88 93.12 21.48 92.4 21.24 91.36C21.08 90.4 21 89.6 21 88.96C21 87.2 21.4 85.12 22.2 82.72C23.08 80.32 24.08 77.96 25.2 75.64C26.32 73.24 27.28 71.24 28.08 69.64C25.52 70.04 22.88 70.76 20.16 71.8C17.44 72.84 15.16 74.36 13.32 76.36C11.48 78.28 10.56 80.88 10.56 84.16C10.56 86 11.24 87.56 12.6 88.84C14.04 90.04 15.68 91 17.52 91.72C19.44 92.52 21.08 93.12 22.44 93.52ZM139.353 92.8C136.873 92.8 134.953 92 133.593 90.4C132.233 88.8 131.553 86.76 131.553 84.28C131.553 83.16 131.713 81.96 132.033 80.68C132.353 79.32 132.873 77.96 133.593 76.6C132.793 77.48 131.793 78.64 130.593 80.08C129.393 81.52 128.073 82.96 126.633 84.4C125.273 85.84 123.833 87.04 122.313 88C120.873 88.96 119.513 89.44 118.233 89.44C115.993 89.44 114.473 88.68 113.673 87.16C112.953 85.64 112.593 83.92 112.593 82C112.593 80.72 112.873 79.16 113.433 77.32C114.073 75.48 114.913 73.68 115.953 71.92C116.993 70.16 118.193 68.72 119.553 67.6C120.913 66.4 122.353 65.8 123.873 65.8C124.433 65.8 125.073 65.92 125.793 66.16C126.593 66.4 126.993 66.84 126.993 67.48C126.993 67.8 126.593 68.52 125.793 69.64C125.073 70.68 124.193 71.88 123.153 73.24C122.193 74.6 121.313 76 120.513 77.44C119.793 78.8 119.433 80.04 119.433 81.16C119.433 81.88 119.513 82.6 119.673 83.32C119.913 83.96 120.473 84.28 121.353 84.28C122.953 84.28 124.553 83.52 126.153 82C127.833 80.4 129.513 78.44 131.193 76.12C132.873 73.8 134.473 71.52 135.993 69.28C137.593 66.96 139.033 65.04 140.313 63.52C141.673 61.92 142.833 61.12 143.793 61.12C144.913 61.12 145.913 61.52 146.793 62.32C147.753 63.04 148.233 63.96 148.233 65.08C147.193 66.68 145.833 68.76 144.153 71.32C142.473 73.8 140.953 76.32 139.593 78.88C138.313 81.44 137.673 83.64 137.673 85.48C137.673 87.16 138.033 88.32 138.753 88.96C139.553 89.6 140.473 89.92 141.513 89.92C142.553 89.92 143.753 89.64 145.113 89.08C146.473 88.52 147.673 87.96 148.713 87.4C151.673 85.64 154.433 83.44 156.993 80.8C159.553 78.16 161.753 75.92 163.593 74.08C163.833 73.84 164.073 73.72 164.313 73.72C164.713 73.72 164.913 74.04 164.913 74.68C164.913 75.24 164.673 75.84 164.193 76.48C162.593 78.32 160.433 80.48 157.713 82.96C155.073 85.36 152.353 87.48 149.553 89.32C148.033 90.28 146.393 91.08 144.633 91.72C142.873 92.44 141.113 92.8 139.353 92.8ZM194.611 93.04C191.811 93.04 189.451 92.4 187.531 91.12C185.611 89.84 184.651 87.68 184.651 84.64C184.651 82.72 185.411 80.16 186.931 76.96C188.451 73.76 190.331 70.8 192.571 68.08C192.171 68.16 191.651 68.24 191.011 68.32C190.451 68.32 189.811 68.32 189.091 68.32C187.891 68.32 186.691 68.16 185.491 67.84C184.291 67.44 183.491 66.72 183.091 65.68C182.771 66.08 181.971 67.08 180.691 68.68C179.411 70.28 177.931 72.04 176.251 73.96C174.651 75.8 173.171 77.4 171.811 78.76C170.451 80.12 169.531 80.8 169.051 80.8C168.891 80.8 168.691 80.72 168.451 80.56C168.211 80.4 168.091 80.2 168.091 79.96C168.091 79.56 168.491 78.96 169.291 78.16C170.171 77.36 170.811 76.76 171.211 76.36C174.251 73.08 176.491 70.4 177.931 68.32C179.451 66.16 180.491 64.56 181.051 63.52C180.571 62.8 180.331 61.68 180.331 60.16C180.331 58.48 180.571 56.72 181.051 54.88C181.611 52.96 182.331 51.32 183.211 49.96C184.171 48.6 185.251 47.92 186.451 47.92C187.811 47.92 188.931 48.64 189.811 50.08C190.691 51.52 191.131 52.84 191.131 54.04C191.131 55 190.771 56.04 190.051 57.16C189.331 58.28 188.491 59.36 187.531 60.4C186.651 61.44 185.891 62.28 185.251 62.92C185.971 64.84 187.371 65.8 189.451 65.8C190.891 65.8 192.091 65.4 193.051 64.6C194.011 63.8 194.891 63.04 195.691 62.32C196.491 61.52 197.331 61.12 198.211 61.12C199.331 61.12 200.331 61.52 201.211 62.32C202.091 63.04 202.491 63.96 202.411 65.08C201.051 66.52 199.531 68.48 197.851 70.96C196.251 73.36 194.891 75.88 193.771 78.52C192.651 81.08 192.091 83.4 192.091 85.48C192.091 87 192.531 88.04 193.411 88.6C194.371 89.16 195.611 89.44 197.131 89.44C198.571 89.44 200.091 89.04 201.691 88.24C203.291 87.44 204.891 86.48 206.491 85.36C207.531 84.64 209.051 83.32 211.051 81.4C213.131 79.48 215.531 77.04 218.251 74.08C218.411 73.92 218.571 73.84 218.731 73.84C219.371 73.84 219.691 74.28 219.691 75.16C219.691 75.4 219.211 76.08 218.251 77.2C217.291 78.24 216.131 79.44 214.771 80.8C213.491 82.16 212.251 83.44 211.051 84.64C209.851 85.76 208.971 86.52 208.411 86.92C206.411 88.44 204.251 89.84 201.931 91.12C199.691 92.4 197.251 93.04 194.611 93.04ZM236.491 91.6C233.051 91.6 230.211 90.84 227.971 89.32C225.811 87.72 224.731 85.08 224.731 81.4C224.731 79 225.531 76.6 227.131 74.2C228.811 71.72 230.891 69.48 233.371 67.48C235.931 65.4 238.571 63.76 241.291 62.56C244.091 61.28 246.611 60.64 248.851 60.64C250.131 60.64 251.371 60.88 252.571 61.36C253.771 61.76 254.371 62.76 254.371 64.36C254.371 65.08 254.051 66 253.411 67.12C252.851 68.16 252.131 69.12 251.251 70C250.371 70.88 249.491 71.32 248.611 71.32C247.731 71.32 247.291 70.8 247.291 69.76C247.291 69.12 247.451 68.52 247.771 67.96C248.091 67.4 248.251 66.84 248.251 66.28C248.251 65.24 247.891 64.64 247.171 64.48C246.451 64.24 245.771 64.12 245.131 64.12C242.891 64.12 240.731 65.04 238.651 66.88C236.571 68.64 234.851 70.76 233.491 73.24C232.211 75.72 231.571 78.08 231.571 80.32C231.571 85.52 233.771 88.12 238.171 88.12C241.771 88.12 245.011 87.44 247.891 86.08C250.771 84.72 253.251 83.16 255.331 81.4C257.491 79.56 259.171 77.96 260.371 76.6C261.651 75.24 262.411 74.56 262.651 74.56C263.371 74.56 263.731 74.8 263.731 75.28C263.731 75.6 263.611 75.96 263.371 76.36C263.291 76.52 263.011 76.88 262.531 77.44C262.131 77.92 261.731 78.36 261.331 78.76C257.411 82.44 253.411 85.52 249.331 88C245.331 90.4 241.051 91.6 236.491 91.6ZM295.653 92.8C293.173 92.8 291.253 92 289.893 90.4C288.533 88.8 287.853 86.76 287.853 84.28C287.853 83.16 288.013 81.96 288.333 80.68C288.653 79.32 289.173 77.96 289.893 76.6C289.093 77.48 288.093 78.64 286.893 80.08C285.693 81.52 284.373 82.96 282.933 84.4C281.573 85.84 280.133 87.04 278.613 88C277.173 88.96 275.813 89.44 274.533 89.44C272.293 89.44 270.773 88.68 269.973 87.16C269.253 85.64 268.893 83.92 268.893 82C268.893 80.72 269.173 79.16 269.733 77.32C270.373 75.48 271.213 73.68 272.253 71.92C273.293 70.16 274.493 68.72 275.853 67.6C277.213 66.4 278.653 65.8 280.173 65.8C280.733 65.8 281.373 65.92 282.093 66.16C282.893 66.4 283.293 66.84 283.293 67.48C283.293 67.8 282.893 68.52 282.093 69.64C281.373 70.68 280.493 71.88 279.453 73.24C278.493 74.6 277.613 76 276.813 77.44C276.093 78.8 275.733 80.04 275.733 81.16C275.733 81.88 275.813 82.6 275.973 83.32C276.213 83.96 276.773 84.28 277.653 84.28C279.253 84.28 280.853 83.52 282.453 82C284.133 80.4 285.813 78.44 287.493 76.12C289.173 73.8 290.773 71.52 292.293 69.28C293.893 66.96 295.333 65.04 296.613 63.52C297.973 61.92 299.133 61.12 300.093 61.12C301.213 61.12 302.213 61.52 303.093 62.32C304.053 63.04 304.533 63.96 304.533 65.08C303.493 66.68 302.133 68.76 300.453 71.32C298.773 73.8 297.253 76.32 295.893 78.88C294.613 81.44 293.973 83.64 293.973 85.48C293.973 87.16 294.333 88.32 295.053 88.96C295.853 89.6 296.773 89.92 297.813 89.92C298.853 89.92 300.053 89.64 301.413 89.08C302.773 88.52 303.973 87.96 305.013 87.4C307.973 85.64 310.733 83.44 313.293 80.8C315.853 78.16 318.053 75.92 319.893 74.08C320.133 73.84 320.373 73.72 320.613 73.72C321.013 73.72 321.213 74.04 321.213 74.68C321.213 75.24 320.973 75.84 320.493 76.48C318.893 78.32 316.733 80.48 314.013 82.96C311.373 85.36 308.653 87.48 305.853 89.32C304.333 90.28 302.693 91.08 300.933 91.72C299.173 92.44 297.413 92.8 295.653 92.8ZM393.948 96.16C391.468 96.16 389.308 95.64 387.468 94.6C385.708 93.56 384.828 91.8 384.828 89.32C384.828 86.28 385.628 82.44 387.228 77.8C388.828 73.16 391.388 67.68 394.908 61.36C397.388 56.88 399.908 52.64 402.468 48.64C405.028 44.64 407.908 40.56 411.108 36.4L389.388 41.56C385.308 42.52 381.388 43.2 377.628 43.6C373.868 44 370.268 44.2 366.828 44.2C362.268 44.2 358.908 43.6 356.748 42.4C354.668 41.12 353.628 39.56 353.628 37.72C353.628 36.6 354.148 35.4 355.188 34.12C356.628 32.36 358.548 30.8 360.948 29.44C363.348 28.08 366.428 26.92 370.188 25.96C373.228 25.16 376.468 24.56 379.908 24.16C383.348 23.76 386.668 23.56 389.868 23.56C392.908 23.56 395.428 23.68 397.428 23.92C399.428 24.08 401.068 24.36 402.348 24.76C403.468 25.16 404.028 25.64 404.028 26.2C404.028 26.76 403.588 26.96 402.708 26.8C402.628 26.8 401.508 26.6 399.348 26.2C397.188 25.8 393.988 25.68 389.748 25.84C375.748 26.4 366.348 28.96 361.548 33.52C360.428 34.56 359.868 35.44 359.868 36.16C359.868 37.2 360.828 37.88 362.748 38.2C364.668 38.52 366.988 38.68 369.708 38.68C372.508 38.68 376.188 38.32 380.748 37.6C385.388 36.8 390.228 35.88 395.268 34.84C397.988 34.28 400.348 33.8 402.348 33.4C404.348 33 406.348 32.6 408.348 32.2C410.348 31.8 412.668 31.32 415.308 30.76C415.548 30.44 415.988 29.88 416.628 29.08C417.348 28.28 417.868 27.72 418.188 27.4C418.748 26.84 419.948 26.4 421.788 26.08C423.628 25.76 425.508 25.6 427.428 25.6C428.708 25.6 429.348 25.8 429.348 26.2C429.348 26.36 428.508 27.36 426.828 29.2C429.868 28.8 432.628 28.48 435.108 28.24C437.588 28 440.148 27.88 442.788 27.88C445.428 27.88 448.268 28.16 451.308 28.72C454.348 29.2 457.228 30 459.948 31.12C462.668 32.16 464.868 33.56 466.548 35.32C468.308 37 469.188 39 469.188 41.32C469.188 42.6 468.708 43.24 467.748 43.24C467.188 43.24 466.828 42.88 466.668 42.16C466.508 41.52 466.308 40.92 466.068 40.36C465.828 39.8 465.628 39.36 465.468 39.04C464.108 36.96 462.108 35.44 459.468 34.48C456.828 33.52 454.028 32.88 451.068 32.56C448.108 32.24 445.428 32.08 443.028 32.08C439.828 32.08 436.588 32.28 433.308 32.68C430.028 33 426.308 33.52 422.148 34.24C418.468 38.48 415.068 42.72 411.948 46.96C408.908 51.2 405.988 55.56 403.188 60.04C395.908 71.88 392.268 81.56 392.268 89.08C392.268 92.2 392.908 93.76 394.188 93.76C394.508 93.76 395.028 93.64 395.748 93.4C396.548 93.16 397.308 92.84 398.028 92.44C399.708 91.48 400.588 91 400.668 91C401.548 91 401.988 91.36 401.988 92.08C401.988 93.04 400.988 93.92 398.988 94.72C396.828 95.68 395.148 96.16 393.948 96.16ZM465.123 91.36C462.563 91.36 460.643 90.76 459.363 89.56C458.083 88.28 457.243 86.68 456.843 84.76C456.523 82.84 456.403 80.92 456.483 79C455.283 80.6 453.803 82.36 452.043 84.28C450.283 86.12 448.363 87.72 446.283 89.08C444.203 90.44 442.083 91.12 439.923 91.12C438.323 91.12 437.003 90.76 435.963 90.04C434.923 89.24 434.403 88 434.403 86.32C434.403 83.52 435.283 80.56 437.043 77.44C438.883 74.32 441.203 71.36 444.003 68.56C446.803 65.68 449.803 63.36 453.003 61.6C456.203 59.84 459.203 58.96 462.003 58.96C462.803 58.96 463.923 59.12 465.363 59.44C466.803 59.76 468.083 60.24 469.203 60.88C470.403 61.52 471.003 62.4 471.003 63.52C471.003 64.08 470.643 64.4 469.923 64.48C469.203 64.56 468.683 64.8 468.363 65.2C466.043 68 464.883 72.52 464.883 78.76C464.883 79.56 464.923 80.64 465.003 82C465.083 83.36 465.363 84.56 465.843 85.6C466.403 86.64 467.243 87.16 468.363 87.16C470.043 87.16 471.843 86.44 473.763 85C475.683 83.56 477.603 81.84 479.523 79.84C481.443 77.76 483.203 75.88 484.803 74.2C484.963 73.96 485.123 73.84 485.283 73.84C485.683 73.84 486.003 74.08 486.243 74.56C486.563 74.96 486.563 75.32 486.243 75.64C484.323 77.88 482.443 79.88 480.603 81.64C478.843 83.4 477.003 85.08 475.083 86.68C471.403 89.8 468.083 91.36 465.123 91.36ZM446.403 85.6C448.243 84.56 450.083 82.92 451.923 80.68C453.843 78.44 455.643 75.88 457.323 73C459.083 70.12 460.563 67.24 461.763 64.36C459.843 64.36 457.683 65.08 455.283 66.52C452.883 67.88 450.603 69.64 448.443 71.8C446.283 73.88 444.483 76.08 443.043 78.4C441.683 80.64 441.003 82.68 441.003 84.52C441.003 86.04 441.603 86.8 442.803 86.8C443.683 86.8 444.883 86.4 446.403 85.6ZM503.523 93.88C500.963 93.88 498.163 93.32 495.123 92.2C492.163 91.08 489.603 89.44 487.443 87.28C485.363 85.12 484.323 82.52 484.323 79.48C484.323 78.44 484.523 77.48 484.923 76.6C485.403 75.72 486.283 75.28 487.563 75.28C488.123 75.28 488.803 75.52 489.603 76C490.403 76.4 491.003 76.8 491.403 77.2C493.243 75.52 495.123 73.44 497.043 70.96C498.963 68.4 500.923 65.84 502.923 63.28C505.003 60.72 507.123 58.52 509.283 56.68C511.523 54.76 513.883 53.6 516.363 53.2C516.603 53.12 517.043 53.08 517.683 53.08C519.283 53.08 520.803 53.44 522.243 54.16C523.763 54.88 524.323 56.04 523.923 57.64C523.763 58.36 523.003 58.76 521.643 58.84C520.363 58.92 518.883 58.96 517.203 58.96C515.603 58.96 514.203 59.24 513.003 59.8C511.803 60.36 511.203 61.52 511.203 63.28C511.203 63.92 511.563 64.92 512.283 66.28C513.003 67.64 513.803 69.24 514.683 71.08C515.563 72.84 516.283 74.72 516.843 76.72C517.403 78.72 517.563 80.68 517.323 82.6C518.203 82.68 519.523 82.56 521.283 82.24C523.123 81.84 525.123 81.12 527.283 80.08C529.523 78.96 531.603 77.36 533.523 75.28C533.763 75.04 534.003 74.92 534.243 74.92C534.643 74.92 534.923 75.12 535.083 75.52C535.243 75.92 535.203 76.28 534.963 76.6C534.163 77.64 533.083 78.8 531.723 80.08C530.443 81.36 528.883 82.44 527.043 83.32C524.883 84.36 522.843 85.08 520.923 85.48C519.003 85.8 517.683 85.92 516.963 85.84C516.163 88.64 514.403 90.68 511.683 91.96C508.963 93.24 506.243 93.88 503.523 93.88ZM510.723 82.48V82.12C510.723 80.68 510.363 78.92 509.643 76.84C508.923 74.76 508.163 72.64 507.363 70.48C506.563 68.24 506.003 66.28 505.683 64.6C503.763 67.08 501.803 69.44 499.803 71.68C497.883 73.92 495.803 76.16 493.563 78.4C496.363 79.44 499.163 80.36 501.963 81.16C504.843 81.88 507.763 82.32 510.723 82.48ZM502.803 90.4C504.163 90.4 505.563 90 507.003 89.2C508.443 88.4 509.683 87.12 510.723 85.36C507.523 85.28 504.163 84.92 500.643 84.28C497.123 83.56 493.963 82.4 491.163 80.8C491.323 84.32 492.483 86.8 494.643 88.24C496.883 89.68 499.603 90.4 502.803 90.4ZM489.123 112.48C488.803 112.48 488.523 112.36 488.283 112.12C488.123 111.88 488.083 111.64 488.163 111.4C488.163 110.76 488.523 110.44 489.243 110.44C491.883 110.44 493.923 109.92 495.363 108.88C496.883 107.92 497.643 106.72 497.643 105.28C497.643 104.08 497.163 102.88 496.203 101.68C495.323 100.72 494.883 99.52 494.883 98.08C494.883 96.32 495.563 94.76 496.923 93.4C498.363 92.04 500.163 91.36 502.323 91.36C503.043 91.36 503.483 91.6 503.643 92.08L503.283 92.56C502.643 92.64 502.123 92.8 501.723 93.04C501.323 93.28 500.923 93.6 500.523 94C499.723 94.8 499.323 95.6 499.323 96.4C499.323 96.96 499.483 97.52 499.803 98.08C500.123 98.64 500.483 99.24 500.883 99.88C501.283 100.52 501.683 101.2 502.083 101.92C502.563 102.72 502.803 103.56 502.803 104.44C502.803 106.68 501.443 108.56 498.723 110.08C496.083 111.68 492.883 112.48 489.123 112.48Z" fill="black"/>
<path d="M128.6 143C128.427 143 128.28 142.947 128.16 142.84C128.053 142.72 128 142.573 128 142.4V127.98C128 127.793 128.053 127.647 128.16 127.54C128.28 127.433 128.427 127.38 128.6 127.38H132.6C133.573 127.38 134.433 127.593 135.18 128.02C135.94 128.447 136.533 129.04 136.96 129.8C137.387 130.547 137.6 131.407 137.6 132.38C137.6 133.353 137.387 134.22 136.96 134.98C136.533 135.74 135.94 136.333 135.18 136.76C134.433 137.187 133.573 137.4 132.6 137.4H129.2V142.4C129.2 142.573 129.147 142.72 129.04 142.84C128.933 142.947 128.787 143 128.6 143ZM129.2 136.2H132.6C133.347 136.2 134 136.04 134.56 135.72C135.133 135.387 135.58 134.933 135.9 134.36C136.233 133.787 136.4 133.127 136.4 132.38C136.4 131.633 136.233 130.98 135.9 130.42C135.58 129.847 135.133 129.4 134.56 129.08C134 128.747 133.347 128.58 132.6 128.58H129.2V136.2ZM149.109 143C148.936 143 148.789 142.947 148.669 142.84C148.563 142.72 148.509 142.573 148.509 142.4V127.98C148.509 127.807 148.563 127.667 148.669 127.56C148.789 127.44 148.936 127.38 149.109 127.38H158.729C158.889 127.38 159.029 127.44 159.149 127.56C159.269 127.667 159.329 127.807 159.329 127.98C159.329 128.14 159.269 128.28 159.149 128.4C159.029 128.52 158.889 128.58 158.729 128.58H149.709V134.58H156.329C156.503 134.58 156.643 134.64 156.749 134.76C156.869 134.867 156.929 135.007 156.929 135.18C156.929 135.353 156.869 135.5 156.749 135.62C156.643 135.74 156.503 135.8 156.329 135.8H149.709V141.8H158.729C158.889 141.8 159.029 141.86 159.149 141.98C159.269 142.1 159.329 142.24 159.329 142.4C159.329 142.573 159.269 142.72 159.149 142.84C159.029 142.947 158.889 143 158.729 143H149.109ZM171.22 143C171.047 143 170.9 142.947 170.78 142.84C170.674 142.72 170.62 142.573 170.62 142.4V127.98C170.62 127.793 170.674 127.647 170.78 127.54C170.9 127.433 171.047 127.38 171.22 127.38H175.04C176.014 127.38 176.874 127.587 177.62 128C178.38 128.4 178.974 128.953 179.4 129.66C179.827 130.367 180.04 131.187 180.04 132.12C180.04 133.027 179.827 133.833 179.4 134.54C178.974 135.247 178.38 135.8 177.62 136.2C176.874 136.6 176.014 136.8 175.04 136.8H171.82V142.4C171.82 142.573 171.767 142.72 171.66 142.84C171.554 142.947 171.407 143 171.22 143ZM179.62 143C179.474 143 179.36 142.973 179.28 142.92C179.214 142.853 179.147 142.773 179.08 142.68L175.1 136.32L176.34 136.04L180.12 142.08C180.294 142.347 180.327 142.567 180.22 142.74C180.127 142.913 179.927 143 179.62 143ZM171.82 135.6H175.04C175.787 135.6 176.44 135.453 177 135.16C177.574 134.853 178.02 134.44 178.34 133.92C178.674 133.4 178.84 132.8 178.84 132.12C178.84 131.427 178.674 130.813 178.34 130.28C178.02 129.747 177.574 129.333 177 129.04C176.44 128.733 175.787 128.58 175.04 128.58H171.82V135.6ZM195.868 143.2C195.028 143.2 194.255 143.087 193.548 142.86C192.855 142.62 192.255 142.287 191.748 141.86C191.242 141.42 190.842 140.907 190.548 140.32C190.468 140.16 190.462 140.007 190.528 139.86C190.608 139.713 190.735 139.613 190.908 139.56C191.055 139.507 191.202 139.513 191.348 139.58C191.495 139.647 191.608 139.753 191.688 139.9C191.928 140.327 192.242 140.7 192.628 141.02C193.028 141.34 193.495 141.587 194.028 141.76C194.575 141.92 195.188 142 195.868 142C196.628 142 197.282 141.873 197.828 141.62C198.388 141.367 198.815 140.993 199.108 140.5C199.415 140.007 199.568 139.407 199.568 138.7C199.568 137.82 199.248 137.08 198.608 136.48C197.982 135.867 197.022 135.473 195.728 135.3C194.235 135.087 193.068 134.607 192.228 133.86C191.388 133.1 190.968 132.18 190.968 131.1C190.968 130.313 191.162 129.627 191.548 129.04C191.948 128.453 192.502 128 193.208 127.68C193.928 127.347 194.755 127.18 195.688 127.18C196.382 127.18 197.022 127.293 197.608 127.52C198.195 127.747 198.708 128.047 199.148 128.42C199.588 128.78 199.928 129.16 200.168 129.56C200.262 129.707 200.282 129.867 200.228 130.04C200.188 130.2 200.082 130.313 199.908 130.38C199.762 130.433 199.615 130.44 199.468 130.4C199.322 130.347 199.202 130.253 199.108 130.12C198.922 129.84 198.682 129.567 198.388 129.3C198.095 129.033 197.728 128.813 197.288 128.64C196.848 128.467 196.315 128.38 195.688 128.38C194.595 128.38 193.735 128.627 193.108 129.12C192.482 129.613 192.168 130.313 192.168 131.22C192.168 131.7 192.295 132.14 192.548 132.54C192.815 132.927 193.228 133.26 193.788 133.54C194.348 133.82 195.062 134.033 195.928 134.18C197.648 134.473 198.882 135.007 199.628 135.78C200.388 136.54 200.768 137.513 200.768 138.7C200.768 139.393 200.648 140.02 200.408 140.58C200.182 141.14 199.848 141.613 199.408 142C198.982 142.387 198.468 142.687 197.868 142.9C197.268 143.1 196.602 143.2 195.868 143.2ZM219.679 143.2C218.533 143.2 217.473 143 216.499 142.6C215.526 142.2 214.673 141.64 213.939 140.92C213.219 140.187 212.659 139.333 212.259 138.36C211.859 137.387 211.659 136.327 211.659 135.18C211.659 134.033 211.859 132.98 212.259 132.02C212.659 131.047 213.219 130.2 213.939 129.48C214.673 128.747 215.526 128.18 216.499 127.78C217.473 127.38 218.533 127.18 219.679 127.18C220.826 127.18 221.879 127.38 222.839 127.78C223.813 128.18 224.659 128.747 225.379 129.48C226.113 130.2 226.679 131.047 227.079 132.02C227.479 132.98 227.679 134.033 227.679 135.18C227.679 136.327 227.479 137.387 227.079 138.36C226.679 139.333 226.113 140.187 225.379 140.92C224.659 141.64 223.813 142.2 222.839 142.6C221.879 143 220.826 143.2 219.679 143.2ZM219.679 142C220.639 142 221.533 141.833 222.359 141.5C223.186 141.153 223.906 140.673 224.519 140.06C225.146 139.433 225.626 138.707 225.959 137.88C226.306 137.053 226.479 136.153 226.479 135.18C226.479 134.22 226.306 133.327 225.959 132.5C225.626 131.673 225.146 130.953 224.519 130.34C223.906 129.713 223.186 129.233 222.359 128.9C221.533 128.553 220.639 128.38 219.679 128.38C218.706 128.38 217.806 128.553 216.979 128.9C216.153 129.233 215.426 129.713 214.799 130.34C214.186 130.953 213.706 131.673 213.359 132.5C213.026 133.327 212.859 134.22 212.859 135.18C212.859 136.153 213.026 137.053 213.359 137.88C213.706 138.707 214.186 139.433 214.799 140.06C215.426 140.673 216.153 141.153 216.979 141.5C217.806 141.833 218.706 142 219.679 142ZM239.877 143C239.704 143 239.557 142.947 239.437 142.84C239.331 142.72 239.277 142.573 239.277 142.4V127.98C239.277 127.807 239.331 127.667 239.437 127.56C239.557 127.44 239.704 127.38 239.877 127.38C240.064 127.38 240.217 127.447 240.337 127.58L250.497 140.8V127.98C250.497 127.807 250.551 127.667 250.657 127.56C250.777 127.44 250.924 127.38 251.097 127.38C251.257 127.38 251.397 127.44 251.517 127.56C251.637 127.667 251.697 127.807 251.697 127.98V142.4C251.697 142.573 251.637 142.72 251.517 142.84C251.397 142.947 251.257 143 251.097 143C251.004 143 250.917 142.987 250.837 142.96C250.771 142.92 250.711 142.873 250.657 142.82L240.477 129.58V142.4C240.477 142.573 240.417 142.72 240.297 142.84C240.191 142.947 240.051 143 239.877 143ZM263.083 143C262.83 143 262.65 142.9 262.543 142.7C262.45 142.5 262.45 142.313 262.543 142.14L268.603 127.8C268.71 127.52 268.903 127.38 269.183 127.38C269.45 127.38 269.643 127.52 269.763 127.8L275.843 142.14C275.95 142.327 275.943 142.52 275.823 142.72C275.703 142.907 275.53 143 275.303 143C275.17 143 275.056 142.973 274.963 142.92C274.883 142.853 274.81 142.753 274.743 142.62L268.863 128.6H269.503L263.643 142.62C263.59 142.753 263.516 142.853 263.423 142.92C263.33 142.973 263.216 143 263.083 143ZM264.563 139.08L265.043 138H273.363L273.823 139.08H264.563ZM287.166 143C287.006 143 286.866 142.947 286.746 142.84C286.626 142.72 286.566 142.573 286.566 142.4V127.98C286.566 127.807 286.626 127.667 286.746 127.56C286.866 127.44 287.006 127.38 287.166 127.38C287.339 127.38 287.479 127.44 287.586 127.56C287.706 127.667 287.766 127.807 287.766 127.98V141.92H295.986C296.172 141.92 296.319 141.973 296.426 142.08C296.532 142.173 296.586 142.3 296.586 142.46C296.586 142.62 296.532 142.753 296.426 142.86C296.319 142.953 296.172 143 295.986 143H287.166ZM322.525 143C322.298 143 322.111 142.953 321.965 142.86C321.818 142.753 321.745 142.6 321.745 142.4V127.98C321.745 127.793 321.798 127.647 321.905 127.54C322.025 127.433 322.171 127.38 322.345 127.38H327.245C327.991 127.38 328.671 127.547 329.285 127.88C329.898 128.2 330.391 128.647 330.765 129.22C331.138 129.78 331.325 130.427 331.325 131.16C331.325 131.933 331.118 132.613 330.705 133.2C330.305 133.773 329.778 134.207 329.125 134.5C330.031 134.753 330.758 135.22 331.305 135.9C331.865 136.58 332.145 137.433 332.145 138.46C332.145 139.34 331.945 140.127 331.545 140.82C331.158 141.5 330.618 142.033 329.925 142.42C329.231 142.807 328.438 143 327.545 143H322.525ZM322.945 141.8H327.545C328.211 141.8 328.798 141.66 329.305 141.38C329.811 141.087 330.211 140.693 330.505 140.2C330.798 139.693 330.945 139.113 330.945 138.46C330.945 137.82 330.798 137.253 330.505 136.76C330.211 136.267 329.811 135.88 329.305 135.6C328.798 135.32 328.211 135.18 327.545 135.18H322.945V141.8ZM322.945 133.98H327.245C328.085 133.98 328.771 133.727 329.305 133.22C329.851 132.7 330.125 132.013 330.125 131.16C330.125 130.333 329.851 129.7 329.305 129.26C328.771 128.807 328.085 128.58 327.245 128.58H322.945V133.98ZM344.241 143C344.081 143 343.941 142.947 343.821 142.84C343.701 142.72 343.641 142.573 343.641 142.4V127.98C343.641 127.807 343.701 127.667 343.821 127.56C343.941 127.44 344.081 127.38 344.241 127.38C344.414 127.38 344.554 127.44 344.661 127.56C344.781 127.667 344.841 127.807 344.841 127.98V141.92H353.061C353.247 141.92 353.394 141.973 353.501 142.08C353.607 142.173 353.661 142.3 353.661 142.46C353.661 142.62 353.607 142.753 353.501 142.86C353.394 142.953 353.247 143 353.061 143H344.241ZM370.374 143.2C369.227 143.2 368.167 143 367.194 142.6C366.221 142.2 365.367 141.64 364.634 140.92C363.914 140.187 363.354 139.333 362.954 138.36C362.554 137.387 362.354 136.327 362.354 135.18C362.354 134.033 362.554 132.98 362.954 132.02C363.354 131.047 363.914 130.2 364.634 129.48C365.367 128.747 366.221 128.18 367.194 127.78C368.167 127.38 369.227 127.18 370.374 127.18C371.521 127.18 372.574 127.38 373.534 127.78C374.507 128.18 375.354 128.747 376.074 129.48C376.807 130.2 377.374 131.047 377.774 132.02C378.174 132.98 378.374 134.033 378.374 135.18C378.374 136.327 378.174 137.387 377.774 138.36C377.374 139.333 376.807 140.187 376.074 140.92C375.354 141.64 374.507 142.2 373.534 142.6C372.574 143 371.521 143.2 370.374 143.2ZM370.374 142C371.334 142 372.227 141.833 373.054 141.5C373.881 141.153 374.601 140.673 375.214 140.06C375.841 139.433 376.321 138.707 376.654 137.88C377.001 137.053 377.174 136.153 377.174 135.18C377.174 134.22 377.001 133.327 376.654 132.5C376.321 131.673 375.841 130.953 375.214 130.34C374.601 129.713 373.881 129.233 373.054 128.9C372.227 128.553 371.334 128.38 370.374 128.38C369.401 128.38 368.501 128.553 367.674 128.9C366.847 129.233 366.121 129.713 365.494 130.34C364.881 130.953 364.401 131.673 364.054 132.5C363.721 133.327 363.554 134.22 363.554 135.18C363.554 136.153 363.721 137.053 364.054 137.88C364.401 138.707 364.881 139.433 365.494 140.06C366.121 140.673 366.847 141.153 367.674 141.5C368.501 141.833 369.401 142 370.374 142ZM396.601 143.2C395.535 143.2 394.528 142.993 393.581 142.58C392.648 142.153 391.821 141.573 391.101 140.84C390.381 140.093 389.815 139.24 389.401 138.28C388.988 137.307 388.781 136.273 388.781 135.18C388.781 134.1 388.981 133.08 389.381 132.12C389.781 131.147 390.335 130.293 391.041 129.56C391.761 128.813 392.595 128.233 393.541 127.82C394.488 127.393 395.508 127.18 396.601 127.18C397.521 127.18 398.395 127.327 399.221 127.62C400.048 127.913 400.821 128.36 401.541 128.96C401.661 129.053 401.721 129.187 401.721 129.36C401.721 129.52 401.668 129.667 401.561 129.8C401.455 129.92 401.308 129.98 401.121 129.98C401.068 129.98 401.015 129.973 400.961 129.96C400.908 129.933 400.855 129.907 400.801 129.88C400.748 129.84 400.688 129.793 400.621 129.74C400.088 129.26 399.481 128.913 398.801 128.7C398.121 128.487 397.388 128.38 396.601 128.38C395.708 128.38 394.861 128.567 394.061 128.94C393.261 129.3 392.555 129.8 391.941 130.44C391.328 131.067 390.848 131.787 390.501 132.6C390.155 133.413 389.981 134.273 389.981 135.18C389.981 136.113 390.155 136.993 390.501 137.82C390.848 138.647 391.321 139.373 391.921 140C392.535 140.627 393.241 141.12 394.041 141.48C394.841 141.827 395.695 142 396.601 142C397.388 142 398.121 141.88 398.801 141.64C399.495 141.4 400.141 141.033 400.741 140.54C400.848 140.447 400.975 140.413 401.121 140.44C401.268 140.467 401.395 140.533 401.501 140.64C401.608 140.747 401.661 140.887 401.661 141.06C401.661 141.14 401.655 141.213 401.641 141.28C401.628 141.347 401.588 141.413 401.521 141.48C400.868 142.133 400.108 142.587 399.241 142.84C398.388 143.08 397.508 143.2 396.601 143.2ZM401.661 141.06L400.461 140.8V136.48H397.101C396.928 136.48 396.781 136.427 396.661 136.32C396.555 136.213 396.501 136.08 396.501 135.92C396.501 135.773 396.555 135.653 396.661 135.56C396.781 135.453 396.928 135.4 397.101 135.4H401.061C401.248 135.4 401.395 135.453 401.501 135.56C401.608 135.667 401.661 135.807 401.661 135.98V141.06Z" fill="black"/>
</svg>
